<?xml version="1.0" encoding="UTF-8" standalone="no"?>
<!-- Created with Inkscape (http://www.inkscape.org/) -->

<svg
   width="210mm"
   height="297mm"
   viewBox="0 0 210 297"
   version="1.1"
   id="svg8"
   inkscape:version="1.1 (c68e22c387, 2021-05-23)"
   sodipodi:docname="Flower.svg"
   inkscape:export-filename="/home/marcos/Documentos/Art/inkscape/livro.png"
   inkscape:export-xdpi="96"
   inkscape:export-ydpi="96"
   xmlns:inkscape="http://www.inkscape.org/namespaces/inkscape"
   xmlns:sodipodi="http://sodipodi.sourceforge.net/DTD/sodipodi-0.dtd"
   xmlns="http://www.w3.org/2000/svg"
   xmlns:svg="http://www.w3.org/2000/svg"
   xmlns:rdf="http://www.w3.org/1999/02/22-rdf-syntax-ns#"
   xmlns:cc="http://creativecommons.org/ns#"
   xmlns:dc="http://purl.org/dc/elements/1.1/">
  <defs
     id="defs2">
    <inkscape:path-effect
       effect="powerstroke"
       id="path-effect28613"
       is_visible="true"
       lpeversion="1"
       offset_points="3.5083825,1.1857547"
       not_jump="true"
       sort_points="true"
       interpolator_type="CentripetalCatmullRom"
       interpolator_beta="0.75"
       start_linecap_type="round"
       linejoin_type="spiro"
       miter_limit="4"
       scale_width="1"
       end_linecap_type="round" />
    <inkscape:path-effect
       effect="simplify"
       id="path-effect28611"
       is_visible="true"
       lpeversion="1"
       steps="1"
       threshold="0.0032025118"
       smooth_angles="0"
       helper_size="0"
       simplify_individual_paths="false"
       simplify_just_coalesce="false"
       step="1" />
    <inkscape:path-effect
       effect="powerstroke"
       id="path-effect28606"
       is_visible="true"
       lpeversion="1"
       offset_points="3.2153576,1.1857547"
       not_jump="true"
       sort_points="true"
       interpolator_type="CentripetalCatmullRom"
       interpolator_beta="0.75"
       start_linecap_type="round"
       linejoin_type="spiro"
       miter_limit="4"
       scale_width="1"
       end_linecap_type="round" />
    <inkscape:path-effect
       effect="simplify"
       id="path-effect28604"
       is_visible="true"
       lpeversion="1"
       steps="1"
       threshold="0.0032025118"
       smooth_angles="0"
       helper_size="0"
       simplify_individual_paths="false"
       simplify_just_coalesce="false"
       step="1" />
    <inkscape:path-effect
       effect="powerstroke"
       id="path-effect28599"
       is_visible="true"
       lpeversion="1"
       offset_points="5.7351448,1.1857547"
       not_jump="true"
       sort_points="true"
       interpolator_type="CentripetalCatmullRom"
       interpolator_beta="0.75"
       start_linecap_type="round"
       linejoin_type="spiro"
       miter_limit="4"
       scale_width="1"
       end_linecap_type="round" />
    <inkscape:path-effect
       effect="simplify"
       id="path-effect28597"
       is_visible="true"
       lpeversion="1"
       steps="1"
       threshold="0.0032025118"
       smooth_angles="0"
       helper_size="0"
       simplify_individual_paths="false"
       simplify_just_coalesce="false"
       step="1" />
    <inkscape:path-effect
       effect="powerstroke"
       id="path-effect28592"
       is_visible="true"
       lpeversion="1"
       offset_points="3.8440171,1.1857547"
       not_jump="true"
       sort_points="true"
       interpolator_type="CentripetalCatmullRom"
       interpolator_beta="0.75"
       start_linecap_type="round"
       linejoin_type="spiro"
       miter_limit="4"
       scale_width="1"
       end_linecap_type="round" />
    <inkscape:path-effect
       effect="simplify"
       id="path-effect28590"
       is_visible="true"
       lpeversion="1"
       steps="1"
       threshold="0.0032025118"
       smooth_angles="0"
       helper_size="0"
       simplify_individual_paths="false"
       simplify_just_coalesce="false"
       step="1" />
    <inkscape:path-effect
       effect="powerstroke"
       id="path-effect28585"
       is_visible="true"
       lpeversion="1"
       offset_points="1,0.5"
       not_jump="true"
       sort_points="true"
       interpolator_type="CentripetalCatmullRom"
       interpolator_beta="0.75"
       start_linecap_type="round"
       linejoin_type="spiro"
       miter_limit="4"
       scale_width="1"
       end_linecap_type="round" />
    <inkscape:path-effect
       effect="simplify"
       id="path-effect28583"
       is_visible="true"
       lpeversion="1"
       steps="1"
       threshold="0.0032025118"
       smooth_angles="0"
       helper_size="0"
       simplify_individual_paths="false"
       simplify_just_coalesce="false"
       step="1" />
  </defs>
  <sodipodi:namedview
     id="base"
     pagecolor="#606060"
     bordercolor="#303030"
     borderopacity="1"
     inkscape:pageopacity="1"
     inkscape:pageshadow="2"
     inkscape:zoom="0.43509799"
     inkscape:cx="534.36239"
     inkscape:cy="643.5332"
     inkscape:document-units="mm"
     inkscape:current-layer="layer2"
     showgrid="false"
     inkscape:pagecheckerboard="false"
     showguides="true"
     borderlayer="true"
     inkscape:showpageshadow="false"
     inkscape:snap-page="true"
     inkscape:snap-grids="true"
     inkscape:guide-bbox="true"
     inkscape:window-width="1440"
     inkscape:window-height="840"
     inkscape:window-x="0"
     inkscape:window-y="0"
     inkscape:window-maximized="1"
     inkscape:snap-global="false"
     inkscape:snap-bbox="false"
     inkscape:snap-bbox-edge-midpoints="true"
     inkscape:snap-object-midpoints="false" />
  <metadata
     id="metadata5">
    <rdf:RDF>
      <cc:Work
         rdf:about="">
        <dc:format>image/svg+xml</dc:format>
        <dc:type
           rdf:resource="http://purl.org/dc/dcmitype/StillImage" />
      </cc:Work>
    </rdf:RDF>
  </metadata>
  <g
     inkscape:label="Fundo"
     inkscape:groupmode="layer"
     id="layer1"
     style="display:inline"
     sodipodi:insensitive="true">
    <rect
       style="opacity:1;fill:#ffffff;fill-opacity:0.99047618;stroke:none;stroke-width:0.26499999;stroke-miterlimit:4;stroke-dasharray:none"
       id="rect829"
       width="210"
       height="297"
       x="0"
       y="0" />
  </g>
  <g
     inkscape:groupmode="layer"
     id="layer2"
     inkscape:label="Camada 2">
    <path
       style="fill:none;stroke:#000000;stroke-width:1.40536px;stroke-linecap:butt;stroke-linejoin:round;stroke-opacity:1"
       d="m 47.509422,272.4214 c -9.969003,1.38521 -19.349371,-5.26957 -19.349371,-5.26957 -0.362144,-24.05918 4.260822,-215.372189 4.260822,-215.372189 0,0 9.910825,8.5657 21.161223,8.55789 0.008,-0.53923 -5.102119,193.672089 -6.072674,212.083869 z"
       id="path5706"
       sodipodi:nodetypes="ccccc" />
    <path
       style="fill:none;stroke:#000000;stroke-width:1.40536px;stroke-linecap:butt;stroke-linejoin:bevel;stroke-opacity:1"
       d="M 53.582096,60.337531 C 50.005918,62.333061 160.25012,36.004727 181.80841,25.826522 L 176.48375,247.51514 C 176.22502,258.28683 47.509422,272.4214 47.509422,272.4214"
       id="path6293"
       sodipodi:nodetypes="ccsc" />
    <path
       style="fill:none;stroke:#000000;stroke-width:1.40536px;stroke-linecap:butt;stroke-linejoin:bevel;stroke-opacity:1"
       d="m 32.420873,51.779641 c 0,0 103.725757,-31.157837 135.934677,-34.241444 -0.12642,2.616857 -0.30138,5.204691 0.55836,8.410895"
       id="path6719"
       sodipodi:nodetypes="ccc" />
    <path
       style="fill:none;stroke:#000000;stroke-width:1.40536px;stroke-linecap:butt;stroke-linejoin:miter;stroke-opacity:1"
       d="M 174.03973,29.050143 162.50439,22.494385 38.498678,55.741621"
       id="path7196"
       sodipodi:nodetypes="ccc" />
    <path
       style="fill:none;stroke:#000000;stroke-width:1.40536px;stroke-linecap:butt;stroke-linejoin:miter;stroke-opacity:1"
       d="M 44.448946,58.334251 C 86.603152,48.140791 128.32754,37.559021 168.91391,25.949092"
       id="path14655"
       sodipodi:nodetypes="cc" />
    <path
       style="fill:none;stroke:#000000;stroke-width:1.40536px;stroke-linecap:butt;stroke-linejoin:miter;stroke-opacity:1"
       d="M 48.325819,59.782171 C 89.836902,50.004261 132.00702,39.136325 171.13258,27.78183"
       id="path14655-3"
       sodipodi:nodetypes="cc" />
    <path
       style="fill:none;stroke:#000000;stroke-width:1.40536px;stroke-linecap:butt;stroke-linejoin:miter;stroke-opacity:1"
       d="M 41.253997,57.196301 C 83.127422,46.634901 124.75435,35.888775 165.1354,24.20894"
       id="path14655-35"
       sodipodi:nodetypes="cc" />
    <g
       aria-label="Marcos Dantas"
       id="text18187"
       style="font-weight:bold;font-size:2.75338px;line-height:1.25;font-family:'Fira Code';-inkscape-font-specification:'Fira Code, Bold';white-space:pre;stroke-width:0.128916"
       transform="matrix(5.3115921,0,0,5.3115921,-294.1315,-383.90935)">
      <path
         d="m 66.780089,90.652686 1.947873,0.218717 -0.06754,0.398141 -0.829531,-0.11637 q -0.13133,-0.01941 -0.180054,-0.02768 -0.128073,-0.02173 -0.230144,-0.04477 -0.103463,-0.02328 -0.272567,-0.06485 l -0.02876,-0.0077 1.175682,0.422852 -0.05857,0.345242 -1.252194,0.02819 q 0.164082,0.01208 0.290315,0.02777 0.125078,0.01406 0.27821,0.04003 0.101623,0.01724 0.158463,0.02831 l 0.816195,0.152776 -0.06636,0.391181 -1.911035,-0.435885 0.07958,-0.469138 1.28369,-0.0028 -1.212846,-0.414835 z"
         style="font-size:2.75338px"
         id="path26472" />
      <path
         d="m 69.26967,89.37039 q 0.06812,0.04795 0.113457,0.05223 0.04418,0.0035 0.09123,-0.02903 l 0.187338,0.244098 q -0.08923,0.104686 -0.179344,0.151763 -0.09046,0.04511 -0.193615,0.03466 0.03403,0.125827 3.54e-4,0.264434 -0.03402,0.13664 -0.11854,0.256722 -0.08777,0.124701 -0.202913,0.185247 -0.11548,0.05858 -0.237838,0.04843 -0.123512,-0.01096 -0.236667,-0.09061 -0.131629,-0.09265 -0.175578,-0.228915 -0.04395,-0.136263 0.0018,-0.304336 0.04463,-0.168885 0.177101,-0.357091 l 0.11622,-0.165114 -0.04619,-0.03251 q -0.188206,-0.132474 -0.358879,0.11 -0.04307,0.0612 -0.09158,0.166912 -0.0477,0.104562 -0.08026,0.214601 l -0.301803,-0.08638 q 0.0374,-0.146348 0.104516,-0.290767 0.06597,-0.145232 0.140736,-0.251459 0.190178,-0.270186 0.393332,-0.32576 0.203154,-0.05558 0.416762,0.09478 z m -0.271483,0.665351 q 0.04389,-0.06235 0.05279,-0.15105 0.0078,-0.08951 -0.03184,-0.165729 l -0.198598,-0.139789 -0.06339,0.09006 q -0.105654,0.150103 -0.110671,0.255354 -0.005,0.105251 0.0862,0.169457 0.07159,0.05039 0.140916,0.0353 0.07014,-0.01624 0.124594,-0.0936 z"
         style="font-size:2.75338px"
         id="path26474" />
      <path
         d="m 69.865507,87.392181 q 0.104592,-0.08399 0.22096,-0.11948 l 0.327569,0.540991 -0.217993,0.175046 -0.173277,-0.215791 q -0.08274,0.09541 -0.08688,0.243608 -0.0041,0.148194 0.06078,0.316992 l 0.268757,0.334695 0.231204,-0.185654 0.187422,0.233406 -0.733247,0.588789 -0.187422,-0.233406 0.154136,-0.123769 -0.565803,-0.704623 -0.154137,0.12377 -0.185654,-0.231204 0.419471,-0.33683 0.275148,0.211856 q -0.05836,-0.201225 -0.02071,-0.352788 0.03875,-0.152447 0.179679,-0.265608 z"
         style="font-size:2.75338px"
         id="path26476" />
      <path
         d="m 71.852646,87.651559 q 0.0761,-0.04035 0.130738,-0.106087 0.05523,-0.06764 0.104711,-0.164207 l 0.308191,0.156218 q -0.05122,0.129449 -0.152078,0.243664 -0.100855,0.114215 -0.248054,0.192272 -0.210819,0.111794 -0.411808,0.106499 -0.200989,-0.0053 -0.36667,-0.118815 -0.165681,-0.11352 -0.27549,-0.320596 -0.109809,-0.207077 -0.110978,-0.414227 -0.0012,-0.207151 0.106473,-0.380903 0.108227,-0.17566 0.317799,-0.286792 0.148446,-0.07872 0.287536,-0.09973 0.140338,-0.02168 0.285702,0.0083 l -0.04522,0.327641 q -0.196377,-0.02372 -0.35106,0.0583 -0.140962,0.07475 -0.167293,0.214973 -0.02508,0.139562 0.0887,0.354123 0.10981,0.207077 0.236027,0.255219 0.125556,0.04689 0.262775,-0.02587 z"
         style="font-size:2.75338px"
         id="path26478" />
      <path
         d="m 72.898089,85.851659 q 0.214097,-0.07643 0.401584,-0.03841 0.188341,0.03621 0.329748,0.176142 0.141406,0.139926 0.222107,0.365992 0.08402,0.235374 0.06234,0.435021 -0.02083,0.197841 -0.142805,0.343334 -0.121976,0.145494 -0.336073,0.221923 -0.215428,0.0769 -0.40149,0.04287 -0.186062,-0.03403 -0.327469,-0.173957 -0.141881,-0.141256 -0.225905,-0.37663 -0.08023,-0.224736 -0.0594,-0.422578 0.02168,-0.199646 0.142711,-0.347799 0.121881,-0.149957 0.334649,-0.225912 z m 0.110608,0.309843 q -0.12899,0.04605 -0.153513,0.174743 -0.02319,0.128221 0.05846,0.356946 0.08308,0.232714 0.182223,0.317261 0.09867,0.08322 0.228993,0.03669 0.13032,-0.04652 0.153514,-0.174742 0.02319,-0.128221 -0.06036,-0.362265 -0.08118,-0.227396 -0.181179,-0.310138 -0.09915,-0.08455 -0.228138,-0.0385 z"
         style="font-size:2.75338px"
         id="path26480" />
      <path
         d="m 74.940409,86.588925 q 0.111606,-0.02499 0.168651,-0.07394 0.05811,-0.05064 0.04299,-0.118151 -0.0108,-0.04822 -0.04377,-0.07267 -0.03328,-0.02583 -0.111097,-0.03734 -0.07813,-0.01289 -0.238951,-0.02028 -0.233726,-0.0099 -0.373987,-0.08699 -0.138884,-0.07742 -0.179925,-0.260674 -0.02962,-0.132274 0.02057,-0.25059 0.05157,-0.118625 0.181907,-0.208587 0.130337,-0.08996 0.331504,-0.135015 0.348599,-0.07807 0.632286,0.04506 l -0.116214,0.295163 q -0.108033,-0.03658 -0.220156,-0.04619 -0.110745,-0.0099 -0.214085,0.01322 -0.106095,0.02376 -0.151973,0.06442 -0.04481,0.03898 -0.03216,0.09547 0.0086,0.03858 0.04068,0.0589 0.03342,0.02001 0.109862,0.03183 0.07782,0.01151 0.237573,0.02059 0.168328,0.0086 0.279568,0.04012 0.110932,0.03014 0.185796,0.10598 0.07593,0.07415 0.10679,0.21194 0.03456,0.15432 -0.03445,0.285532 -0.06794,0.129525 -0.212672,0.219818 -0.144733,0.09029 -0.336255,0.133184 -0.205301,0.04598 -0.382226,0.02483 -0.177234,-0.02253 -0.318874,-0.09933 l 0.164153,-0.294322 q 0.106985,0.05128 0.225093,0.06824 0.118108,0.01696 0.23936,-0.0102 z"
         style="font-size:2.75338px"
         id="path26482" />
      <path
         d="m 79.186389,85.488458 q -0.0011,0.549263 -0.264119,0.769025 -0.261641,0.218352 -0.685237,0.217532 l -0.528083,-0.001 0.0038,-1.957014 0.494195,9.57e-4 q 0.283809,5.49e-4 0.498276,0.08145 0.214469,0.07949 0.348192,0.294368 0.133726,0.21347 0.132988,0.594706 z m -0.480075,-9.29e-4 q 4.86e-4,-0.251334 -0.05431,-0.389815 -0.0548,-0.139893 -0.149302,-0.190908 -0.09309,-0.05242 -0.228641,-0.05269 l -0.09884,-1.92e-4 -0.0025,1.286321 0.09884,1.91e-4 q 0.136963,2.65e-4 0.231678,-0.05744 0.09613,-0.05912 0.148653,-0.203039 0.05393,-0.143919 0.05442,-0.392429 z"
         style="font-size:2.75338px"
         id="path26484" />
      <path
         d="m 80.760682,86.223502 q -0.01016,0.08268 0.0074,0.124681 0.01777,0.04059 0.06862,0.06676 l -0.126922,0.280304 q -0.13439,-0.02932 -0.218398,-0.08659 -0.08243,-0.0585 -0.121862,-0.154394 -0.09492,0.08934 -0.233024,0.125001 -0.136535,0.03443 -0.282286,0.01652 -0.151355,-0.0186 -0.259039,-0.09159 -0.10611,-0.07421 -0.154855,-0.186902 -0.04857,-0.114089 -0.03169,-0.25143 0.01964,-0.159765 0.119077,-0.262774 0.09944,-0.10301 0.269243,-0.141889 0.169974,-0.04028 0.398409,-0.0122 l 0.200407,0.02463 0.0069,-0.05606 q 0.02808,-0.228435 -0.266226,-0.264608 -0.07428,-0.0091 -0.190378,-0.0021 -0.114699,0.0072 -0.227089,0.03042 l -0.06613,-0.306878 q 0.14669,-0.03603 0.305695,-0.04494 0.159178,-0.01031 0.28811,0.0055 0.327938,0.04031 0.47274,0.193253 0.144802,0.152946 0.112936,0.412213 z m -0.714752,0.07433 q 0.07568,0.0093 0.158097,-0.02467 0.08259,-0.03537 0.131133,-0.106227 l 0.02963,-0.241048 -0.109312,-0.01344 q -0.182188,-0.02239 -0.277369,0.02281 -0.09518,0.04521 -0.108789,0.15592 -0.01068,0.08689 0.03532,0.140912 0.0474,0.05419 0.141295,0.06574 z"
         style="font-size:2.75338px"
         id="path26486" />
      <path
         d="m 81.135036,86.727052 0.389156,-1.448156 0.376357,0.101136 -0.01507,0.175786 q 0.127861,-0.08407 0.249511,-0.106938 0.122017,-0.02423 0.258378,0.01241 0.186815,0.0502 0.261032,0.192961 0.07595,0.141762 0.02098,0.346304 l -0.285821,1.063617 -0.430901,-0.115794 0.252475,-0.939529 q 0.02419,-0.09 0.02447,-0.14548 0.0017,-0.05512 -0.02248,-0.08499 -0.02377,-0.03124 -0.07695,-0.04554 -0.06545,-0.01759 -0.139539,0.0078 -0.07236,0.02442 -0.158432,0.08901 l -0.272263,1.013164 z"
         style="font-size:2.75338px"
         id="path26488" />
      <path
         d="m 84.025384,87.689954 q -0.112095,0.01563 -0.241378,-0.005 -0.128007,-0.02003 -0.26071,-0.08291 Q 83.262995,87.4787 83.19445,87.28372 83.1259,87.088741 83.23957,86.848856 l 0.291431,-0.615025 -0.284544,-0.134833 0.131809,-0.278164 0.284545,0.134832 0.139064,-0.293477 0.426188,0.142576 -0.162041,0.341964 0.436387,0.206783 -0.171365,0.259421 -0.396831,-0.18804 -0.291431,0.615025 q -0.04777,0.100803 -0.02366,0.165349 0.02538,0.06515 0.127457,0.11352 0.127599,0.06046 0.266356,0.05121 z"
         style="font-size:2.75338px"
         id="path26490" />
      <path
         d="m 85.533549,88.433619 q -0.05398,0.06345 -0.0624,0.108201 -0.0075,0.04368 0.02056,0.0935 l -0.260219,0.164211 q -0.09608,-0.09843 -0.134712,-0.19248 -0.03664,-0.09421 -0.0168,-0.195974 -0.128413,0.02237 -0.263357,-0.02385 -0.132953,-0.04638 -0.244796,-0.141538 -0.116144,-0.09882 -0.165898,-0.219015 -0.04776,-0.120357 -0.02646,-0.241272 0.02222,-0.121991 0.11189,-0.227381 0.104308,-0.122597 0.244023,-0.153892 0.139714,-0.03129 0.302891,0.02968 0.164092,0.0599 0.339385,0.209039 l 0.153784,0.130843 0.0366,-0.04302 q 0.149143,-0.175293 -0.07669,-0.36744 -0.057,-0.04849 -0.15783,-0.106477 -0.09976,-0.05707 -0.206355,-0.09956 l 0.113643,-0.29263 q 0.142311,0.05063 0.279981,0.130688 0.138586,0.07898 0.237524,0.163159 0.251646,0.214108 0.288394,0.421495 0.03675,0.207388 -0.132524,0.40634 z m -0.637713,-0.331237 q 0.05807,0.04941 0.145584,0.0664 0.08843,0.01591 0.167949,-0.01654 l 0.157378,-0.184971 -0.08388,-0.07137 q -0.139803,-0.118948 -0.244154,-0.133576 -0.10435,-0.01463 -0.176634,0.07033 -0.05673,0.06668 -0.04805,0.137094 0.0098,0.07133 0.08181,0.132638 z"
         style="font-size:2.75338px"
         id="path26492" />
      <path
         d="m 86.068549,89.51227 q 0.04954,0.103087 0.110097,0.147614 0.06244,0.04519 0.124805,0.01522 0.04454,-0.02141 0.06092,-0.05904 0.01765,-0.03825 0.0113,-0.116657 -0.0051,-0.07902 -0.03417,-0.237363 -0.04312,-0.229926 3.43e-4,-0.383971 0.04408,-0.152772 0.213345,-0.23411 0.122177,-0.05871 0.248768,-0.03651 0.127203,0.02347 0.244258,0.130141 0.117055,0.106673 0.206343,0.292484 0.154725,0.321987 0.0988,0.626143 l -0.313775,-0.04661 q 0.01125,-0.1135 -0.0047,-0.224901 -0.01532,-0.110129 -0.06119,-0.205579 -0.04709,-0.098 -0.09705,-0.133515 -0.04808,-0.03486 -0.100262,-0.0098 -0.03563,0.01712 -0.0482,0.05292 -0.01195,0.03707 -0.0062,0.114211 0.0063,0.07841 0.03356,0.236091 0.0296,0.165928 0.024,0.281411 -0.0043,0.114872 -0.06132,0.20492 -0.0551,0.09071 -0.182372,0.151864 -0.14254,0.06849 -0.28594,0.03088 -0.141517,-0.03696 -0.262142,-0.157579 -0.120625,-0.120622 -0.205632,-0.297524 -0.09112,-0.189629 -0.110447,-0.366763 -0.01805,-0.177746 0.02481,-0.333063 l 0.323775,0.0935 q -0.02582,0.115798 -0.01568,0.234686 0.01013,0.118889 0.06395,0.230884 z"
         style="font-size:2.75338px"
         id="path26494" />
    </g>
    <text
       xml:space="preserve"
       style="font-style:normal;font-weight:normal;font-size:10.5833px;line-height:1.25;font-family:sans-serif;fill:#000000;fill-opacity:1;stroke:none;stroke-width:0.264583"
       x="78.974678"
       y="85.545189"
       id="text25055"><tspan
         sodipodi:role="line"
         id="tspan25053"
         style="stroke-width:0.264583"
         x="78.974678"
         y="85.545189" /></text>
    <path
       style="fill:none;stroke:#000000;stroke-width:1.06232;stroke-linecap:round;stroke-linejoin:round;stroke-miterlimit:4;stroke-dasharray:none;stroke-opacity:1"
       d="M 77.606492,119.06192 C 87.736342,97.458701 115.51858,72.247161 157.28385,105.84983"
       id="path28759"
       sodipodi:nodetypes="cc" />
    <path
       style="fill:none;stroke:#000000;stroke-width:1.06232;stroke-linecap:round;stroke-linejoin:round;stroke-miterlimit:4;stroke-dasharray:none;stroke-opacity:1"
       d="m 126.3899,117.49018 c 0,0 3.90461,-8.99912 13.66245,-4.42951"
       id="path29083-8" />
    <path
       style="fill:none;stroke:#000000;stroke-width:1.02113px;stroke-linecap:round;stroke-linejoin:round;stroke-opacity:1"
       d="m 110.95035,120.35369 c 0,0 5.43237,-8.16819 14.22995,-1.94732"
       id="path29083-8-9" />
    <path
       style="fill:none;stroke:#000000;stroke-width:1.06232;stroke-linecap:round;stroke-linejoin:round;stroke-miterlimit:4;stroke-dasharray:none;stroke-opacity:1"
       d="m 94.350162,121.22788 c 0,0 6.196338,-7.60496 14.351528,-0.56298"
       id="path29083-8-9-2" />
    <path
       style="fill:none;stroke:#000000;stroke-width:1.06232;stroke-linecap:round;stroke-linejoin:round;stroke-miterlimit:4;stroke-dasharray:none;stroke-opacity:1"
       d="m 78.411212,120.30023 c 0,0 7.33379,-6.51501 14.25657,1.74161"
       id="path29083-8-9-2-7" />
    <path
       style="fill:none;stroke:#000000;stroke-width:1.06232;stroke-linecap:round;stroke-linejoin:round;stroke-miterlimit:4;stroke-dasharray:none;stroke-opacity:1"
       d="m 142.05511,111.96945 c 0,0 3.62529,-9.24432 14.08121,-4.74483"
       id="path29083-8-5" />
    <path
       style="fill:none;stroke:#000000;stroke-width:1.06232;stroke-linecap:butt;stroke-linejoin:miter;stroke-miterlimit:4;stroke-dasharray:none;stroke-opacity:1"
       d="m 115.65123,116.7951 c 0.6321,1.21429 8.78887,31.0632 9.83124,44.36104 0.0726,0.92565 3.96611,1.80504 3.81258,-2.18461 -0.20821,-5.41107 -0.26829,-19.2641 -9.91994,-42.53707"
       id="path30119"
       sodipodi:nodetypes="cssc" />
    <path
       style="fill:none;stroke:#000000;stroke-width:1.06232;stroke-linecap:round;stroke-linejoin:bevel;stroke-miterlimit:4;stroke-dasharray:none;stroke-opacity:1"
       d="m 104.1269,94.692081 c -3.5393,5.517749 -9.147518,15.271279 -10.848708,24.703649"
       id="path30748"
       sodipodi:nodetypes="cc" />
    <path
       style="fill:none;stroke:#000000;stroke-width:1.06232;stroke-linecap:round;stroke-linejoin:bevel;stroke-miterlimit:4;stroke-dasharray:none;stroke-opacity:1"
       d="m 107.36013,94.071411 c -0.36283,5.709066 -0.55253,15.507789 1.85675,23.300989"
       id="path30748-3"
       sodipodi:nodetypes="cc" />
    <path
       style="fill:none;stroke:#000000;stroke-width:1.06232;stroke-linecap:round;stroke-linejoin:bevel;stroke-miterlimit:4;stroke-dasharray:none;stroke-opacity:1"
       d="m 111.66596,92.555821 c 4.52576,4.21759 10.34982,13.922529 12.9313,21.528179"
       id="path30748-3-6"
       sodipodi:nodetypes="cc" />
    <path
       style="fill:none;stroke:#000000;stroke-width:1.06232;stroke-linecap:round;stroke-linejoin:bevel;stroke-miterlimit:4;stroke-dasharray:none;stroke-opacity:1"
       d="m 115.29501,91.553521 c 6.67566,2.48889 17.12563,10.517159 23.19366,17.802869"
       id="path30748-3-6-4"
       sodipodi:nodetypes="cc" />
    <path
       style="fill:none;stroke:#000000;stroke-width:1.06232;stroke-linecap:round;stroke-linejoin:round;stroke-miterlimit:4;stroke-dasharray:none;stroke-opacity:1"
       d="m 72.497178,206.28097 c 0,0 52.473652,-3.76726 53.081842,-5.61071 0.60783,-1.84234 8.96149,35.95094 -21.54595,36.33823 -25.885668,0.32861 -26.661083,-5.29996 -31.523911,-26.77133"
       id="path35366"
       sodipodi:nodetypes="cssc" />
    <path
       style="fill:none;stroke:#000000;stroke-width:1.06232;stroke-linecap:round;stroke-linejoin:round;stroke-miterlimit:4;stroke-dasharray:none;stroke-opacity:1"
       d="m 126.16708,204.91872 c -0.0657,0.0312 12.9646,-8.60866 13.26951,5.67691 0.2901,13.59077 -14.6735,13.78288 -14.28691,14.00186"
       id="path36138"
       sodipodi:nodetypes="csc" />
    <path
       style="fill:none;stroke:#000000;stroke-width:1.06232;stroke-linecap:round;stroke-linejoin:round;stroke-miterlimit:4;stroke-dasharray:none;stroke-opacity:1"
       d="m 84.523262,235.82603 c 0,0 -12.695258,0.86158 -11.775524,4.81898 0.919743,3.95741 37.970542,-0.004 37.970542,-0.004 0,0 25.2473,-2.66035 23.42209,-7.18446 -1.10691,-2.74365 -13.60202,-0.83897 -13.60202,-0.83897"
       id="path36460"
       sodipodi:nodetypes="cscsc" />
    <path
       style="fill:none;stroke:#000000;stroke-width:1.06232;stroke-linecap:round;stroke-linejoin:round;stroke-miterlimit:4;stroke-dasharray:none;stroke-opacity:1"
       d="m 127.43837,209.01365 c 0,0 9.65579,-7.72981 8.39955,2.41728 -1.25625,10.1471 -8.58514,9.36122 -8.58514,9.36122"
       id="path37210"
       sodipodi:nodetypes="csc" />
    <path
       style="fill:none;stroke:#000000;stroke-width:0.946478;stroke-linecap:butt;stroke-linejoin:bevel;stroke-miterlimit:4;stroke-dasharray:none;stroke-opacity:1"
       d="m 88.810392,204.80002 -0.24475,-4.45253 3.410879,-4.44542 8.510709,-1.0356 4.56787,3.26846 0.49308,5.62733"
       id="path38254" />
    <path
       style="fill:none;stroke:#000000;stroke-width:1.06232;stroke-linecap:round;stroke-linejoin:round;stroke-miterlimit:4;stroke-dasharray:none;stroke-opacity:1"
       d="m 97.399894,176.13224 c 0,0 -7.892838,5.41832 -5.513166,10.3714 2.379651,4.95307 7.523693,2.44681 6.090455,5.58209 -1.433248,3.13528 -0.330839,3.35274 -0.330839,3.35274"
       id="path38575"
       sodipodi:nodetypes="cssc" />
    <path
       style="fill:none;stroke:#000000;stroke-width:1.06232;stroke-linecap:round;stroke-linejoin:round;stroke-miterlimit:4;stroke-dasharray:none;stroke-opacity:1"
       d="m 97.467384,176.14246 c 0,0 -5.896541,1.99095 -6.036508,-0.33464 -0.139955,-2.32569 -2.130713,-10.9431 -0.763708,-10.92783 1.366985,0.0153 9.602452,-0.45897 9.602452,-0.45897 0,0 2.22559,9.64025 0.93025,9.9037 -1.295335,0.26334 -3.732487,1.8179 -3.732487,1.8179 z"
       id="path38896" />
    <path
       style="fill:none;stroke:#000000;stroke-width:1.06232;stroke-linecap:round;stroke-linejoin:round;stroke-miterlimit:4;stroke-dasharray:none;stroke-opacity:1"
       d="m 73.805192,215.22254 c 0,0 20.969309,0.008 24.529071,-0.93355"
       id="path39091" />
    <path
       style="fill:none;stroke:#000000;stroke-width:1.06232;stroke-linecap:round;stroke-linejoin:round;stroke-miterlimit:4;stroke-dasharray:none;stroke-opacity:1"
       d="m 126.73032,210.33085 c 0,0 -15.88304,3.46434 -21.83786,3.39781"
       id="path39206" />
    <path
       style="fill:none;stroke:#000000;stroke-width:1.06232;stroke-linecap:round;stroke-linejoin:round;stroke-miterlimit:4;stroke-dasharray:none;stroke-opacity:1"
       d="m 117.34201,233.46403 0.27795,4.08064 c -4.53684,1.15156 -28.132378,3.30001 -30.610029,1.81655 l -0.198164,-2.32709"
       id="path39663"
       sodipodi:nodetypes="cccc" />
  </g>
</svg>
