<?xml version="1.0" encoding="UTF-8" standalone="no"?>
<!-- Created with Inkscape (http://www.inkscape.org/) -->

<svg
   width="210mm"
   height="297mm"
   viewBox="0 0 210 297"
   version="1.1"
   id="svg8"
   inkscape:version="1.1 (c68e22c387, 2021-05-23)"
   sodipodi:docname="Circulos.svg"
   inkscape:export-filename="/home/marcos/Imagens/Circulos.png"
   inkscape:export-xdpi="96"
   inkscape:export-ydpi="96"
   xmlns:inkscape="http://www.inkscape.org/namespaces/inkscape"
   xmlns:sodipodi="http://sodipodi.sourceforge.net/DTD/sodipodi-0.dtd"
   xmlns:xlink="http://www.w3.org/1999/xlink"
   xmlns="http://www.w3.org/2000/svg"
   xmlns:svg="http://www.w3.org/2000/svg"
   xmlns:rdf="http://www.w3.org/1999/02/22-rdf-syntax-ns#"
   xmlns:cc="http://creativecommons.org/ns#"
   xmlns:dc="http://purl.org/dc/elements/1.1/">
  <defs
     id="defs2">
    <linearGradient
       inkscape:collect="always"
       id="linearGradient78781">
      <stop
         style="stop-color:#8a5012;stop-opacity:1;"
         offset="0"
         id="stop78777" />
      <stop
         style="stop-color:#975815;stop-opacity:1"
         offset="1"
         id="stop78779" />
    </linearGradient>
    <linearGradient
       inkscape:collect="always"
       id="linearGradient59830">
      <stop
         style="stop-color:#bb752a;stop-opacity:1;"
         offset="0"
         id="stop59826" />
      <stop
         style="stop-color:#935513;stop-opacity:1"
         offset="1"
         id="stop59828" />
    </linearGradient>
    <linearGradient
       inkscape:collect="always"
       xlink:href="#linearGradient59830"
       id="linearGradient59832"
       x1="99.843353"
       y1="110.96444"
       x2="115.68757"
       y2="133.40878"
       gradientUnits="userSpaceOnUse"
       gradientTransform="matrix(1.59413,0,0,1.59413,-69.592597,-49.028224)" />
    <linearGradient
       inkscape:collect="always"
       xlink:href="#linearGradient78781"
       id="linearGradient78783"
       x1="173.02875"
       y1="113.63602"
       x2="163.95467"
       y2="96.692589"
       gradientUnits="userSpaceOnUse" />
  </defs>
  <sodipodi:namedview
     id="base"
     pagecolor="#606060"
     bordercolor="#303030"
     borderopacity="1"
     inkscape:pageopacity="1"
     inkscape:pageshadow="2"
     inkscape:zoom="0.41457898"
     inkscape:cx="482.41712"
     inkscape:cy="241.20856"
     inkscape:document-units="mm"
     inkscape:current-layer="layer2"
     showgrid="false"
     inkscape:pagecheckerboard="false"
     showguides="true"
     borderlayer="true"
     inkscape:showpageshadow="false"
     inkscape:snap-page="true"
     inkscape:snap-grids="true"
     inkscape:guide-bbox="true"
     inkscape:window-width="1440"
     inkscape:window-height="840"
     inkscape:window-x="0"
     inkscape:window-y="0"
     inkscape:window-maximized="1"
     inkscape:snap-global="true"
     inkscape:snap-center="false"
     inkscape:snap-object-midpoints="true"
     inkscape:snap-bbox="false"
     inkscape:bbox-nodes="false"
     inkscape:snap-others="true"
     inkscape:bbox-paths="true" />
  <metadata
     id="metadata5">
    <rdf:RDF>
      <cc:Work
         rdf:about="">
        <dc:format>image/svg+xml</dc:format>
        <dc:type
           rdf:resource="http://purl.org/dc/dcmitype/StillImage" />
      </cc:Work>
    </rdf:RDF>
  </metadata>
  <g
     inkscape:label="Fundo"
     inkscape:groupmode="layer"
     id="layer1"
     style="display:inline"
     sodipodi:insensitive="true">
    <rect
       style="opacity:1;fill:#ffffff;fill-opacity:0.99047618;stroke:none;stroke-width:0.26499999;stroke-miterlimit:4;stroke-dasharray:none"
       id="rect829"
       width="210"
       height="297"
       x="0"
       y="0" />
  </g>
  <g
     inkscape:groupmode="layer"
     id="layer2"
     inkscape:label="Camada 2">
    <circle
       style="fill:none;stroke:#9d5b15;stroke-width:1.047;stroke-linecap:round;stroke-linejoin:round;stroke-miterlimit:4;stroke-dasharray:0.26175, 0.26175;stroke-dashoffset:0;stroke-opacity:0.965531;paint-order:stroke fill markers"
       id="path1354"
       sodipodi:type="arc"
       sodipodi:cx="-179.25157"
       sodipodi:cy="-30.75915"
       sodipodi:rx="76.455864"
       sodipodi:ry="76.455864"
       sodipodi:start="0"
       sodipodi:end="4.4058517"
       sodipodi:open="true"
       sodipodi:arc-type="arc"
       d="m -102.79571,-30.75915 a 76.455864,76.455864 0 0 1 -68.65726,76.05709 76.455864,76.455864 0 0 1 -82.66353,-60.541233 76.455864,76.455864 0 0 1 51.79367,-88.407667"
       transform="rotate(-135)" />
    <path
       id="path2598"
       style="fill:#bb752a;fill-opacity:1;stroke-width:0.92451;stroke-linecap:round;stroke-linejoin:round;stroke-dasharray:0.231129, 0.231129;stroke-opacity:0.965531;paint-order:stroke fill markers"
       d="m 96.396134,232.87451 c 0,2.46061 -4.46578,1.87007 -8.80274,-0.63388 -4.336947,-2.50395 -6.659363,-6.79219 -6.659363,-9.25281 0,-2.4606 5.164183,-0.16576 9.501143,2.33819 4.33696,2.50393 5.96096,5.08787 5.96096,7.5485 z"
       sodipodi:nodetypes="sssss" />
    <path
       id="path2598-6"
       style="fill:#935513;fill-opacity:1;stroke-width:0.92451;stroke-linecap:round;stroke-linejoin:round;stroke-dasharray:0.231129, 0.231129;stroke-opacity:0.965531;paint-order:stroke fill markers"
       d="m 99.567434,215.91285 c 1.739906,1.73992 -1.83545,4.48013 -6.67269,5.77627 -4.83725,1.29613 -9.511688,-0.0939 -11.251609,-1.83386 -1.739911,-1.73989 3.534419,-3.76884 8.371669,-5.06497 4.83724,-1.29613 7.8127,-0.61735 9.55263,1.12256 z"
       sodipodi:nodetypes="sssss" />
    <path
       id="path2598-7"
       style="fill:#935513;fill-opacity:1;stroke-width:0.996446;stroke-linecap:round;stroke-linejoin:round;stroke-dasharray:0.249112, 0.249112;stroke-opacity:0.965531;paint-order:stroke fill markers"
       d="m 122.68774,233.27644 c 0.6592,2.56883 -4.1612,3.14872 -9.3597,1.69651 -5.19849,-1.45217 -8.77187,-5.30682 -9.43109,-7.87565 -0.65919,-2.56881 5.34689,-1.55654 10.54538,-0.10427 5.19852,1.45218 7.58621,3.7147 8.24541,6.28352 z"
       sodipodi:nodetypes="sssss" />
    <path
       id="path2598-6-5"
       style="fill:#bb752a;fill-opacity:1;stroke-width:0.996446;stroke-linecap:round;stroke-linejoin:round;stroke-dasharray:0.249112, 0.249112;stroke-opacity:0.965531;paint-order:stroke fill markers"
       d="m 121.45443,214.71922 c 2.28255,1.3503 -0.71593,5.16888 -5.41867,7.81794 -4.70275,2.64905 -9.95517,2.4502 -12.23775,1.09985 -2.28255,-1.3503 2.68019,-4.88149 7.38291,-7.53051 4.70275,-2.64906 7.99092,-2.73758 10.27351,-1.38728 z"
       sodipodi:nodetypes="sssss" />
    <path
       id="path2598-7-3"
       style="fill:#bb752a;fill-opacity:1;stroke-width:1.05336;stroke-linecap:round;stroke-linejoin:round;stroke-dasharray:0.263341, 0.263341;stroke-opacity:0.965531;paint-order:stroke fill markers"
       d="m 150.72574,221.9927 c 1.733,2.17779 -2.87108,4.62336 -8.70196,5.28981 -5.83085,0.66647 -11.02911,-1.58528 -12.76209,-3.76306 -1.73301,-2.17777 4.7264,-3.57911 10.55731,-4.24547 5.83088,-0.66647 9.17381,0.54107 10.90679,2.71883 z"
       sodipodi:nodetypes="sssss" />
    <path
       id="path2598-6-5-5"
       style="fill:#935513;fill-opacity:1;stroke-width:1.05336;stroke-linecap:round;stroke-linejoin:round;stroke-dasharray:0.263341, 0.263341;stroke-opacity:0.965531;paint-order:stroke fill markers"
       d="m 141.75388,204.87281 c 2.85717,0.38349 1.43399,5.18513 -2.18969,9.54743 -3.62369,4.36227 -8.98656,6.23892 -11.84375,5.85541 -2.85717,-0.38347 0.66034,-5.68483 4.28402,-10.04709 3.62369,-4.36227 6.89224,-5.7392 9.74942,-5.35575 z"
       sodipodi:nodetypes="sssss" />
    <path
       id="path2598-7-3-6"
       style="fill:#935513;fill-opacity:1;stroke-width:1.18169;stroke-linecap:round;stroke-linejoin:round;stroke-dasharray:0.295426, 0.295426;stroke-opacity:0.965531;paint-order:stroke fill markers"
       d="m 175.29598,202.9128 c 2.5824,1.72587 -1.75852,5.77666 -8.00022,8.35659 -6.24166,2.57991 -12.67731,1.89414 -15.25969,0.16824 -2.58239,-1.72586 4.12914,-5.27952 10.37087,-7.85934 6.24168,-2.57993 10.30679,-2.39127 12.88913,-0.66541 z"
       sodipodi:nodetypes="sssss" />
    <path
       id="path2598-6-5-5-2"
       style="fill:#bb752a;fill-opacity:1;stroke-width:1.18169;stroke-linecap:round;stroke-linejoin:round;stroke-dasharray:0.295426, 0.295426;stroke-opacity:0.965531;paint-order:stroke fill markers"
       d="m 160.1374,187.84508 c 3.27588,-0.51865 3.17245,4.97751 0.50204,10.72304 -2.67041,5.7455 -8.02424,9.44416 -11.30011,9.96336 -3.27592,0.51867 -1.01026,-6.17729 1.66012,-11.92277 2.67041,-5.74553 5.86209,-8.24437 9.13795,-8.76363 z"
       sodipodi:nodetypes="sssss" />
    <path
       id="path2598-7-3-6-9"
       style="fill:#bb752a;fill-opacity:1;stroke-width:1.18169;stroke-linecap:round;stroke-linejoin:round;stroke-dasharray:0.295426, 0.295426;stroke-opacity:0.965531;paint-order:stroke fill markers"
       d="m 189.46367,173.37864 c 3.06322,0.51401 0.76713,5.98946 -3.86591,10.9037 -4.63302,4.91421 -10.78316,6.93004 -13.84634,6.41598 -3.06322,-0.51404 1.59866,-6.50901 6.23179,-11.42319 4.633,-4.91421 8.41742,-6.41049 11.48058,-5.89648 z"
       sodipodi:nodetypes="sssss" />
    <path
       id="path2598-6-5-5-2-1"
       style="fill:#935513;fill-opacity:1;stroke-width:1.18169;stroke-linecap:round;stroke-linejoin:round;stroke-dasharray:0.295426, 0.295426;stroke-opacity:0.965531;paint-order:stroke fill markers"
       d="m 169.45669,165.85935 c 2.77446,-1.81739 4.93574,3.23705 4.85854,9.57237 -0.0773,6.33529 -3.44148,11.90531 -6.21567,13.72319 -2.77448,1.81742 -3.45643,-5.21848 -3.37924,-11.55374 0.0771,-6.33532 1.96219,-9.92389 4.73637,-11.74182 z"
       sodipodi:nodetypes="sssss" />
    <path
       id="path2598-7-3-6-9-2"
       style="fill:#935513;fill-opacity:1;stroke-width:1.28098;stroke-linecap:round;stroke-linejoin:round;stroke-dasharray:0.320247, 0.320247;stroke-opacity:0.965531;paint-order:stroke fill markers"
       d="m 195.07478,137.57705 c 3.31305,-0.52559 2.83464,5.91793 -0.2292,12.5879 -3.06385,6.66993 -8.67292,10.8712 -11.98593,11.3967 -3.31304,0.52557 -0.5894,-7.26991 2.47454,-13.93984 3.0638,-6.66992 6.42777,-9.51925 9.74073,-10.04478 z"
       sodipodi:nodetypes="sssss" />
    <path
       id="path2598-6-5-5-2-1-7"
       style="fill:#bb752a;fill-opacity:1;stroke-width:1.28098;stroke-linecap:round;stroke-linejoin:round;stroke-dasharray:0.320247, 0.320247;stroke-opacity:0.965531;paint-order:stroke fill markers"
       d="m 172.01233,136.7136 c 2.21974,-2.83251 6.16231,1.63957 8.2505,8.20562 2.08816,6.56605 0.54809,13.47545 -1.67122,16.30841 -2.21978,2.83258 -5.32512,-4.19491 -7.41328,-10.76087 -2.08818,-6.56607 -1.38529,-10.92017 0.834,-13.75316 z"
       sodipodi:nodetypes="sssss" />
    <path
       id="path2598-7-3-6-9-2-0"
       style="fill:#bb752a;fill-opacity:1;stroke-width:1.33779;stroke-linecap:round;stroke-linejoin:round;stroke-dasharray:0.334448, 0.334448;stroke-opacity:0.965531;paint-order:stroke fill markers"
       d="m 179.35738,98.099701 c 2.74457,-2.18986 5.72589,3.814759 6.46799,11.364199 0.74207,7.54941 -2.14803,14.2151 -4.89261,16.40489 -2.74456,2.18984 -4.39414,-6.18839 -5.13611,-13.73785 -0.7421,-7.54937 0.81634,-11.84154 3.56085,-14.031319 z"
       sodipodi:nodetypes="sssss" />
    <path
       id="path2598-6-5-5-2-1-7-9"
       style="fill:#935513;fill-opacity:1;stroke-width:1.33779;stroke-linecap:round;stroke-linejoin:round;stroke-dasharray:0.334448, 0.334448;stroke-opacity:0.965531;paint-order:stroke fill markers"
       d="m 157.85345,109.30386 c 0.52318,-3.68302 6.4932,-1.73518 11.8817,3.04616 5.38849,4.78134 7.64812,11.75343 7.12556,15.43663 -0.52316,3.68309 -7.08463,-0.98233 -12.47306,-5.76358 -5.38853,-4.78138 -7.05668,-9.03602 -6.5342,-12.71921 z"
       sodipodi:nodetypes="sssss" />
    <path
       id="path2598-7-3-6-9-2-0-3"
       style="fill:#935513;fill-opacity:1;stroke-width:1.40883;stroke-linecap:round;stroke-linejoin:round;stroke-dasharray:0.352208, 0.352208;stroke-opacity:0.965531;paint-order:stroke fill markers"
       d="m 149.16543,70.245174 c 1.64075,-3.233934 7.41237,0.942275 11.73022,7.535153 4.31781,6.592872 4.66463,13.996944 3.02382,17.230814 -1.64079,3.23391 -7.24008,-3.71396 -11.55783,-10.306916 -4.31782,-6.592821 -4.83688,-11.225357 -3.19613,-14.45919 z"
       sodipodi:nodetypes="sssss" />
    <path
       id="path2598-6-5-5-2-1-7-9-6"
       style="fill:#bb752a;fill-opacity:1;stroke-width:1.40883;stroke-linecap:round;stroke-linejoin:round;stroke-dasharray:0.352208, 0.352208;stroke-opacity:0.965531;paint-order:stroke fill markers"
       d="m 133.47678,90.122741 c -1.24118,-3.61159 5.52144,-4.490632 13.06396,-2.51118 7.54251,1.97946 13.06903,7.36525 14.31089,10.97673 1.24124,3.611659 -7.39272,2.262259 -14.93513,0.28285 -7.54255,-1.97949 -11.19779,-5.13695 -12.43972,-8.7484 z"
       sodipodi:nodetypes="sssss" />
    <path
       id="path2598-7-3-6-9-2-0-3-0"
       style="fill:#bb752a;fill-opacity:1;stroke-width:1.45595;stroke-linecap:round;stroke-linejoin:round;stroke-dasharray:0.363989, 0.363989;stroke-opacity:0.965531;paint-order:stroke fill markers"
       d="m 104.03155,56.314388 c 0.15319,-3.677121 7.50567,-2.262067 14.52591,1.997022 7.0202,4.259094 10.596,10.944301 10.44275,14.621386 -0.15319,3.677112 -8.55517,-0.368147 -15.57535,-4.62735 -7.02021,-4.25904 -9.54652,-8.314188 -9.39331,-11.991218 z"
       sodipodi:nodetypes="sssss" />
    <path
       id="path2598-6-5-5-2-1-7-9-6-6"
       style="fill:#935513;fill-opacity:1;stroke-width:1.45595;stroke-linecap:round;stroke-linejoin:round;stroke-dasharray:0.363989, 0.363989;stroke-opacity:0.965531;paint-order:stroke fill markers"
       d="M 97.728044,81.283398 C 94.958024,78.47535 101.044,74.807257 109.12866,73.4472 c 8.08462,-1.360041 15.73258,1.274644 18.50319,4.082304 2.77011,2.808092 -6.08288,5.210585 -14.16741,6.570632 -8.08468,1.360032 -12.96573,-0.009 -15.736396,-2.816738 z"
       sodipodi:nodetypes="sssss" />
    <path
       id="path2598-7-3-6-9-2-0-3-0-2"
       style="fill:#935513;fill-opacity:1;stroke-width:1.45595;stroke-linecap:round;stroke-linejoin:round;stroke-dasharray:0.363989, 0.363989;stroke-opacity:0.965531;paint-order:stroke fill markers"
       d="m 59.106062,70.434996 c -1.895432,-3.154681 5.022505,-6.018847 13.227973,-6.32544 8.20543,-0.306561 14.869769,3.307972 16.765149,6.46265 1.89543,3.154677 -7.346123,4.400117 -15.5516,4.706579 -8.2054,0.306608 -12.546226,-1.689316 -14.441598,-4.84393 z"
       sodipodi:nodetypes="sssss" />
    <path
       id="path2598-6-5-5-2-1-7-9-6-6-6"
       style="fill:#bb752a;fill-opacity:1;stroke-width:1.45595;stroke-linecap:round;stroke-linejoin:round;stroke-dasharray:0.363989, 0.363989;stroke-opacity:0.965531;paint-order:stroke fill markers"
       d="m 67.581965,94.752571 c -3.858103,-0.82049 -0.794714,-7.23217 5.207578,-12.816435 6.002277,-5.584232 13.838041,-7.592596 17.696431,-6.772749 3.8582,0.820488 -2.21205,7.697955 -8.214244,13.282144 -6.00232,5.58425 -10.831347,7.12686 -14.689765,6.30704 z"
       sodipodi:nodetypes="sssss" />
    <path
       id="path2598-7-3-6-9-2-0-3-0-2-1"
       style="fill:#bb752a;fill-opacity:1;stroke-width:1.5244;stroke-linecap:round;stroke-linejoin:round;stroke-dasharray:0.381104, 0.381104;stroke-opacity:0.965531;paint-order:stroke fill markers"
       d="m 28.729401,98.936731 c -3.320867,-2.00684 1.842094,-7.88316 9.461505,-12.01557 7.619395,-4.132357 15.677316,-3.94142 18.998122,-1.934555 3.320869,2.006835 -4.825062,7.487465 -12.444547,11.619755 -7.619345,4.132389 -12.694445,4.337079 -16.015222,2.33028 z"
       sodipodi:nodetypes="sssss" />
    <path
       id="path2598-6-5-5-2-1-7-9-6-6-6-8"
       style="fill:#935513;fill-opacity:1;stroke-width:1.5244;stroke-linecap:round;stroke-linejoin:round;stroke-dasharray:0.381104, 0.381104;stroke-opacity:0.965531;paint-order:stroke fill markers"
       d="m 48.349432,116.8319 c -4.049336,1.05734 -4.251947,-6.26705 -1.272034,-14.21104 2.979913,-7.943939 9.425857,-13.465269 13.475165,-14.523339 4.049423,-1.05739 1.630948,8.10581 -1.348903,16.049669 -2.979946,7.944 -6.804921,11.62659 -10.854228,12.68471 z"
       sodipodi:nodetypes="sssss" />
    <g
       aria-label="Marcos"
       id="text12769"
       style="font-size:17.6389px;line-height:1.25;font-family:'Comic Sans MS';-inkscape-font-specification:'Comic Sans MS, Normal';white-space:pre;stroke-width:0.264583"
       transform="matrix(1.5941301,0,0,1.5941301,-69.592597,-49.028227)">
      <path
         d="m 95.966336,102.95328 q -0.315336,0.34186 -0.874245,0.23643 -0.479064,-0.0904 -1.328263,-0.59247 l -1.299121,-0.77649 q -1.252349,-0.67477 -5.228684,-3.299725 l 2.64956,4.787405 0.858317,1.48304 q 0.505157,0.88777 0.733231,1.55512 0.23588,0.7097 -0.178729,1.15919 -0.344533,0.37352 -0.948249,0.21503 -0.394364,-0.10598 -0.910977,-0.3716 l -0.872066,-0.46459 q -2.824566,-1.42196 -5.825523,-3.28783 l 0.922989,1.27319 2.589358,3.89996 q 0.542048,0.59373 1.448992,1.92242 0.318616,0.64541 -0.08431,1.08223 -0.286138,0.31021 -0.677063,0.28942 -0.335912,-0.0169 -0.614467,-0.27386 -1.057244,-0.9752 -2.192698,-2.83104 l -1.90896,-3.04973 -1.655507,-2.20664 q -1.142166,-1.5691 -1.286522,-2.2764 -0.133604,-0.59192 0.210929,-0.96544 0.379571,-0.4115 1.034916,-0.18196 0.791183,0.27282 2.788602,1.58797 2.392328,1.58568 5.471053,3.11318 -1.573103,-3.18519 -3.582373,-6.304005 l -0.74911,-1.042499 q -0.451998,-0.627835 -0.624514,-1.126764 -0.240737,-0.679028 0.156353,-1.109522 0.502201,-0.544449 1.815893,0.140031 0.454289,0.231562 1.721811,1.131234 3.206054,2.265961 5.74579,3.577505 l 1.375035,0.6942 q 1.095553,0.56528 1.298138,0.75215 0.272225,0.2511 0.263112,0.62936 -0.0033,0.37194 -0.242694,0.6315 z"
         style="font-size:17.6389px"
         id="path42166" />
      <path
         d="m 104.83751,99.809682 q -0.15473,0.05326 -0.68525,-0.164933 -0.4814,-0.207771 -0.75026,-0.406713 -0.63606,0.69256 -1.15769,1.108914 -0.51883,0.42449 -0.91788,0.56183 -1.905677,0.65588 -3.147054,-0.11921 -1.170092,-0.72676 -1.887628,-2.811597 -0.678296,-1.970826 0.191498,-3.836856 0.877939,-1.868832 2.759182,-2.516297 0.70852,-0.24385 1.714192,-0.180084 1.26453,0.07487 1.48596,0.718236 0.0757,0.219886 -0.0283,0.446965 0.0251,0.337498 0.22006,1.062835 0.20313,0.722534 0.57617,1.832909 0.33942,1.012648 0.68781,1.548557 0.20477,0.330304 1.00638,1.256747 0.10746,0.12697 0.33586,0.367161 l 0.0965,0.121629 q 0.11212,0.325757 -0.043,0.615979 -0.15515,0.290222 -0.45648,0.393928 z m -3.64193,-5.077018 q -0.12052,-0.350188 -0.21995,-0.771398 -0.0941,-0.432157 -0.16426,-0.927191 -0.35458,-0.05103 -0.59969,-0.04865 -0.23697,-4.2e-4 -0.367273,0.04443 -1.262305,0.434446 -1.826602,1.785447 -0.558955,1.340055 -0.09648,2.6838 0.459672,1.335601 1.161854,1.840835 0.702183,0.505233 1.646871,0.1801 0.78182,-0.269076 1.22936,-0.741906 0.23993,-0.255638 0.60952,-0.902027 -1.00337,-2.068444 -1.37335,-3.14344 z"
         style="font-size:17.6389px"
         id="path42168" />
      <path
         d="m 113.81374,92.736855 q -0.0817,1.075177 -0.88256,1.059214 -0.74055,-0.01476 -0.72356,-0.867254 0.003,-0.16361 -0.0138,-0.603287 l -0.0114,-0.723842 q -1.3638,0.136489 -2.19387,0.722955 -0.77754,0.544441 -1.30807,1.662359 l -0.0768,4.71919 q -0.0173,0.869715 -0.86983,0.852722 -0.75777,-0.01511 -0.74044,-0.88482 l 0.1205,-6.044946 q 0.006,-0.284164 0.0342,-0.852149 0.0372,-0.567813 0.0428,-0.851977 0.0173,-0.869715 0.77511,-0.85461 0.84388,0.01682 0.824,1.446425 1.68507,-1.560085 3.70005,-1.51992 0.6975,0.0139 1.03147,0.546043 0.33397,0.532139 0.31285,1.591296 -0.009,0.447774 -0.0206,0.602601 z"
         style="font-size:17.6389px"
         id="path42170" />
      <path
         d="m 118.90401,101.44456 q -1.64421,-0.6434 -2.35385,-2.067924 -0.74695,-1.494618 -0.0784,-3.202992 0.63712,-1.62817 2.39781,-2.936905 1.95633,-1.454151 3.46419,-0.864109 0.78601,0.307575 1.61212,1.056281 1.04197,0.953406 0.7752,1.635152 -0.11927,0.304781 -0.41394,0.466934 -0.29153,0.154132 -0.58829,0.03801 -0.23259,-0.09102 -0.35569,-0.296414 -0.11194,-0.210279 -0.21899,-0.409398 -0.3257,-0.562138 -1.40046,-0.982701 -0.81809,-0.320129 -2.19136,0.825757 -1.254,1.053824 -1.6369,2.03233 -0.41428,1.058711 0.069,1.950739 0.45089,0.833094 1.5096,1.247379 0.48123,0.188311 1.12706,0.145071 l 1.12497,-0.133202 q 0.29083,-0.03417 0.3951,0.0066 0.29676,0.116122 0.41916,0.441472 0.12554,0.31734 0.006,0.62212 -0.22911,0.5855 -1.67769,0.64756 -1.27109,0.0575 -1.98491,-0.22179 z"
         style="font-size:17.6389px"
         id="path42172" />
      <path
         d="m 125.82494,105.78161 q -1.0677,-0.97655 -1.11592,-2.46796 -0.0558,-1.66177 1.25408,-3.18326 1.27556,-1.471195 3.03801,-1.866785 2.06975,-0.47635 3.65859,0.976848 1.27108,1.162557 0.86194,2.924307 -0.33915,1.41725 -1.56728,2.72173 -1.30951,1.39345 -2.94027,1.7344 -1.84817,0.38722 -3.18915,-0.83928 z m 5.57215,-5.32658 q -0.92843,-0.860838 -2.26918,-0.44138 -1.06994,0.34033 -1.9128,1.26186 -0.84285,0.92153 -0.81161,1.89552 0.03,0.80946 0.59562,1.3268 0.66096,0.60453 1.57939,0.55748 1.02848,-0.0398 1.89149,-0.91952 2.33852,-2.37815 0.92709,-3.68076 z"
         style="font-size:17.6389px"
         id="path42174" />
      <path
         d="m 138.84031,112.04014 q -0.21465,-0.42227 -0.0164,-0.73558 0.14108,-0.21664 0.72773,-0.62112 -0.43858,-0.50168 -1.43898,-1.50037 -1.11971,-0.98635 -1.84533,-0.62717 0.0326,0.27327 0.10742,0.51543 0.58284,1.9259 0.46715,3.06681 -0.17002,1.66126 -1.69789,2.4379 -1.25148,0.63615 -2.43902,-0.12249 -0.97871,-0.63291 -1.6773,-2.00723 -0.51125,-1.00578 -0.63786,-2.09116 -0.17107,-1.40093 0.59671,-1.7912 0.30711,-0.15611 0.65843,-0.0352 0.35522,0.12861 0.51133,0.43572 0.12098,0.23801 -0.0563,0.80155 -0.0829,0.27403 0.12974,0.9775 0.16935,0.56124 0.34887,0.91442 0.32783,0.64493 0.73116,1.05825 0.58561,0.60086 1.06931,0.35498 1.04418,-0.53077 0.67119,-2.17687 l -0.2293,-0.88825 q -0.29641,-1.13433 -0.21553,-1.71649 0.11384,-0.84045 0.98142,-1.28146 1.60466,-0.81567 3.05682,0.3495 0.44146,0.3553 1.2407,1.22436 0.80691,0.86516 1.22899,1.20132 0.29821,0.24454 0.48554,0.61307 0.16782,0.33015 0.0582,0.64672 -0.1057,0.32426 -0.4512,0.49988 -0.22266,0.11318 -0.60578,0.42386 -0.37922,0.31837 -0.60187,0.43155 -0.3455,0.17562 -0.66975,0.0699 -0.32036,-0.098 -0.48817,-0.42817 z"
         style="font-size:17.6389px"
         id="path42176" />
    </g>
    <g
       aria-label="Dantas"
       id="text33539"
       style="font-size:17.6389px;line-height:1.25;font-family:'Comic Sans MS';-inkscape-font-specification:'Comic Sans MS, Normal';stroke-width:0.264583"
       transform="matrix(1.5941301,0,0,1.5941301,-72.098729,-56.561632)">
      <path
         d="m 91.51057,156.00919 q -1.617102,0.0249 -3.700234,-1.35319 -0.524375,-0.34689 -1.090303,-0.95879 -0.683401,-0.73091 -0.888511,-1.31065 l -0.07183,-0.0475 q -0.308878,-0.20433 -0.374634,-0.55763 -0.06576,-0.3533 0.138578,-0.66218 0.498952,-0.75424 1.556754,-2.21276 1.069737,-1.46096 1.568689,-2.2152 0.555976,-0.84043 1.622507,-2.5307 1.078466,-1.6927 1.634442,-2.53313 0.194829,-0.29451 0.71036,-0.41818 0.515532,-0.12366 0.817227,0.0759 0.172397,0.11405 0.830935,1.24158 0.74982,1.27054 0.884202,1.44205 1.579096,2.04632 2.060601,4.44053 0.561848,2.81913 -0.787699,4.85916 -0.81258,1.22833 -2.140473,1.97119 -1.320709,0.74761 -2.770609,0.7695 z m 3.519064,-8.59775 q -0.414308,-0.96597 -2.29035,-3.89029 l -1.332639,2.09252 -1.342253,2.07584 -2.709484,3.846 q 0.03603,0.0548 0.08907,0.19317 0.351759,0.84198 1.31431,1.47874 1.637773,1.08344 2.717462,1.07482 1.010399,-0.0132 1.947306,-0.53963 0.948842,-0.52891 1.523825,-1.39808 1.340044,-2.02567 0.08275,-4.93309 z"
         style="font-size:17.6389px"
         id="path42643" />
      <path
         d="m 101.97914,160.57183 q -0.15679,-0.0469 -0.46089,-0.53326 -0.27023,-0.44932 -0.37286,-0.76764 -0.92044,0.19236 -1.586968,0.22688 -0.668991,0.0428 -1.073345,-0.0781 -1.930995,-0.57708 -2.488437,-1.93024 -0.52766,-1.27235 0.103678,-3.38489 0.596812,-1.99701 2.390843,-3.00699 1.802279,-1.00752 3.708519,-0.43783 0.71794,0.21455 1.49819,0.85225 0.98418,0.79751 0.78935,1.44943 -0.0666,0.22281 -0.28341,0.34678 -0.17624,0.28892 -0.44031,0.99205 -0.25582,0.70561 -0.59947,1.82543 -0.31405,1.02079 -0.34308,1.65934 -0.026,0.38775 0.0858,1.60774 0.0134,0.1658 0.0591,0.49408 l 0.008,0.15508 q -0.0987,0.33009 -0.39383,0.47559 -0.29518,0.1455 -0.6005,0.0543 z m -0.002,-6.24819 q 0.10605,-0.35484 0.27061,-0.75511 0.17529,-0.40606 0.40664,-0.84931 -0.25848,-0.24803 -0.45909,-0.38889 -0.19236,-0.13839 -0.32439,-0.17785 -1.27908,-0.38225 -2.52477,0.38709 -1.234974,0.76356 -1.641891,2.12515 -0.404451,1.35335 -0.128053,2.17306 0.276397,0.81971 1.233642,1.10579 0.792203,0.23675 1.431412,0.11316 0.34393,-0.068 1.02089,-0.37808 0.38947,-2.26573 0.715,-3.35501 z"
         style="font-size:17.6389px"
         id="path42645" />
      <path
         d="m 111.00922,161.32327 q -0.73994,-0.0334 -0.79808,-0.84644 l -0.15586,-1.89515 q -0.075,-1.0121 -0.0354,-1.88971 0.0109,-0.24091 0.0627,-0.81621 0.0604,-0.57492 0.0713,-0.81583 0.0839,-1.85846 -0.60443,-1.88953 -0.96365,-0.0435 -1.89291,1.06122 -0.83855,1.00536 -1.35781,2.5769 -0.0323,0.33478 -0.11549,0.83969 -0.071,0.42787 -0.0893,0.83226 -0.0117,0.25812 0.0167,0.77669 0.0283,0.51857 0.0167,0.77669 -0.0175,0.38718 -0.26926,0.61721 -0.24318,0.23043 -0.61315,0.21373 -0.37858,-0.0171 -0.60001,-0.26848 -0.22143,-0.2514 -0.20396,-0.63858 0.0117,-0.25812 -0.0253,-0.77708 -0.0283,-0.51857 -0.0167,-0.77669 0.04,-0.88621 0.23114,-2.4467 0.20013,-1.5687 0.24013,-2.45491 0.0124,-0.27533 0.002,-0.81893 -0.001,-0.54322 0.0111,-0.81854 0.0167,-0.36998 0.26809,-0.59141 0.26039,-0.22965 0.62176,-0.21334 0.79157,0.0357 0.81852,1.15774 l -0.0196,1.00784 q 1.53246,-1.86205 3.05537,-1.79331 1.37663,0.0621 1.86393,1.29976 0.33346,0.82548 0.29642,2.41016 l -0.0392,0.86901 -0.0447,0.79978 q -0.0322,0.71413 0.0972,1.85801 0.13841,1.13567 0.10657,1.84119 -0.0171,0.37858 -0.27709,0.59962 -0.25179,0.23004 -0.62176,0.21334 z"
         style="font-size:17.6389px"
         id="path42647" />
      <path
         d="m 117.95194,152.20196 q -0.17762,0.0341 -0.42616,0.0643 -0.24008,0.0286 -0.4177,0.0627 -0.19454,0.0374 -1.12596,0.34775 l 1.12053,4.96796 0.0799,0.37054 0.0913,0.42974 q 0.3895,1.84586 -0.53244,2.02288 -0.33833,0.065 -0.63431,-0.10622 -0.28751,-0.17282 -0.35085,-0.50269 -0.0617,-0.32141 -0.15977,-0.96911 -0.0981,-0.6477 -0.15977,-0.96911 l -1.11762,-4.90713 q -0.62232,0.0932 -1.90533,0.21675 -0.77228,0.043 -0.91357,-0.69282 -0.0715,-0.37217 0.10981,-0.6613 0.18128,-0.28914 0.53653,-0.35735 l 1.80383,-0.19727 q -0.0828,-0.43137 -0.26316,-1.1422 -0.1735,-0.72091 -0.23522,-1.04232 -0.0682,-0.35525 0.13323,-0.63072 0.19982,-0.28393 0.55506,-0.35214 0.76124,-0.14617 1.12685,1.07283 0.0855,0.30809 0.16992,0.74792 l 0.0773,0.49382 0.0922,0.52604 q 1.02284,-0.33672 1.17509,-0.36595 0.87966,-0.16891 1.16656,-0.13629 0.54843,0.0701 0.66861,0.696 0.0715,0.37216 -0.11827,0.66293 -0.1829,0.28068 -0.5466,0.35051 z"
         style="font-size:17.6389px"
         id="path42649" />
      <path
         d="m 128.17228,156.44694 q -0.1492,0.0672 -0.69749,-0.10141 -0.49842,-0.16276 -0.78439,-0.33621 -0.56988,0.74797 -1.05114,1.21039 -0.47772,0.47028 -0.86249,0.64364 -1.83751,0.82784 -3.14473,0.16984 -1.2318,-0.6164 -2.13748,-2.62667 -0.85614,-1.90033 -0.16112,-3.83825 0.70289,-1.94146 2.51684,-2.75869 0.68317,-0.30779 1.69046,-0.33651 1.26607,-0.0414 1.54555,0.57896 0.0955,0.21202 0.0128,0.44769 0.0559,0.33377 0.31658,1.03818 0.26852,0.70086 0.74181,1.77235 0.43084,0.97726 0.82691,1.47897 0.23419,0.31014 1.11736,1.15917 0.11865,0.11659 0.36812,0.33482 l 0.10725,0.11227 q 0.14152,0.3141 0.0136,0.61733 -0.12789,0.30323 -0.41844,0.43413 z m -4.09211,-4.7217 q -0.15213,-0.33766 -0.28975,-0.74798 -0.13332,-0.42171 -0.24859,-0.90822 -0.35777,-0.0183 -0.60163,0.007 -0.23601,0.0213 -0.36165,0.0779 -1.21715,0.54836 -1.65519,1.94541 -0.43373,1.38566 0.15001,2.68134 0.58019,1.28783 1.32575,1.72655 0.74555,0.43872 1.65645,0.0283 0.75385,-0.33963 1.15615,-0.8515 0.21547,-0.27656 0.52424,-0.95412 -1.1888,-1.96773 -1.65579,-3.00427 z"
         style="font-size:17.6389px"
         id="path42651" />
      <path
         d="m 130.42351,145.89129 q -0.37378,0.29099 -0.71906,0.15593 -0.2395,-0.0973 -0.7481,-0.59641 -0.40918,0.52593 -1.19954,1.6979 -0.75556,1.28676 -0.26502,1.93089 0.26208,-0.084 0.48562,-0.20342 1.78002,-0.93825 2.92212,-1.0415 1.6633,-0.14881 2.71617,1.20362 0.8624,1.10776 0.34328,2.41784 -0.43536,1.08115 -1.65186,2.02821 -0.89029,0.69309 -1.93182,1.02367 -1.34288,0.4342 -1.87196,-0.24541 -0.21164,-0.27184 -0.15968,-0.63974 0.0588,-0.37319 0.33059,-0.58482 0.21068,-0.16402 0.79765,-0.097 0.28479,0.0293 0.93503,-0.31316 0.51883,-0.27293 0.83145,-0.5163 0.57087,-0.44443 0.9,-0.91896 0.4786,-0.68914 0.14528,-1.11729 -0.71954,-0.92427 -2.26476,-0.24523 l -0.82848,0.39393 q -1.05731,0.50659 -1.64424,0.53783 -0.84676,0.048 -1.44462,-0.71998 -1.10578,-1.42039 -0.23783,-3.06753 0.26491,-0.50094 0.96624,-1.45078 0.69603,-0.95663 0.94585,-1.43491 0.1834,-0.33925 0.50961,-0.59321 0.29224,-0.2275 0.62387,-0.18006 0.33844,0.0421 0.57652,0.34797 0.15343,0.19708 0.53127,0.51418 0.38464,0.3118 0.53807,0.50888 0.23808,0.30583 0.19594,0.64426 -0.0354,0.33314 -0.32759,0.56065 z"
         style="font-size:17.6389px"
         id="path42653" />
    </g>
    <rect
       style="fill:url(#linearGradient59832);fill-opacity:1;stroke:none;stroke-width:1.85812;stroke-linecap:round;stroke-linejoin:round;stroke-miterlimit:4;stroke-dasharray:0.464528, 0.464528;stroke-dashoffset:0;stroke-opacity:1;paint-order:stroke fill markers"
       id="rect42776"
       width="105.00183"
       height="22.86375"
       x="52.499081"
       y="137.06812"
       ry="0" />
    <rect
       style="fill:url(#linearGradient78783);fill-opacity:1;stroke:none;stroke-width:1.78422;stroke-linecap:round;stroke-linejoin:round;stroke-miterlimit:4;stroke-dasharray:0.446059, 0.446059;stroke-dashoffset:0;stroke-opacity:0.965531;paint-order:stroke fill markers"
       id="rect47053"
       width="8.8877144"
       height="22.86973"
       x="164.14104"
       y="90.766296"
       transform="matrix(0.95939996,0.28204914,0,1,0,0)" />
    <rect
       style="fill:#bb752a;fill-opacity:1;stroke:none;stroke-width:1.78814;stroke-linecap:round;stroke-linejoin:round;stroke-miterlimit:4;stroke-dasharray:0.44704, 0.44704;stroke-dashoffset:0;stroke-opacity:0.965531;paint-order:stroke fill markers"
       id="rect47053-6"
       width="8.9268169"
       height="22.86973"
       x="45.840733"
       y="121.68862"
       transform="matrix(0.95976231,0.28081365,0,1,0,0)" />
    <text
       xml:space="preserve"
       style="font-style:normal;font-weight:normal;font-size:16.8711px;line-height:1.25;font-family:sans-serif;fill:#000000;fill-opacity:1;stroke:none;stroke-width:0.42178"
       x="51.646084"
       y="158.0834"
       id="text56479"><tspan
         sodipodi:role="line"
         id="tspan56477"
         style="font-style:normal;font-variant:normal;font-weight:normal;font-stretch:normal;font-size:28.1187px;font-family:'Comic Sans MS';-inkscape-font-specification:'Comic Sans MS, Normal';font-variant-ligatures:normal;font-variant-caps:normal;font-variant-numeric:normal;font-variant-east-asian:normal;stroke-width:0.42178"
         x="51.646084"
         y="158.0834">Santana</tspan></text>
  </g>
</svg>
